<?xml version="1.0" encoding="iso-8859-1"?>
<!-- Generator: Adobe Illustrator 19.0.0, SVG Export Plug-In . SVG Version: 6.00 Build 0)  -->
<svg version="1.1" id="Layer_1" xmlns="http://www.w3.org/2000/svg" xmlns:xlink="http://www.w3.org/1999/xlink" x="0px" y="0px"
	 viewBox="0 0 512 512" style="enable-background:new 0 0 512 512;" xml:space="preserve">
<path style="fill:#6E5840;" d="M428.522,512H83.478c-3.073,0-5.565-2.492-5.565-5.565V59.593c0-3.073,2.492-5.565,5.565-5.565
	h345.043c3.073,0,5.565,2.492,5.565,5.565v446.841C434.087,509.508,431.595,512,428.522,512z"/>
<path style="fill:#E3D7B1;" d="M365.998,456.348H146.002c-6.147,0-11.13-4.983-11.13-11.13V54.028h242.255v391.189
	C377.128,451.365,372.144,456.348,365.998,456.348z"/>
<path style="fill:#57544C;" d="M195.37,289.92c0-6.147,4.93-11.13,11.011-11.13h99.237c6.082,0,11.011,4.983,11.011,11.13
	c0,6.147-4.93,11.13-11.011,11.13h-99.237C200.301,301.05,195.37,296.067,195.37,289.92z M231.191,320.587
	c-6.082,0-11.011,4.983-11.011,11.13c0,6.147,4.93,11.13,11.011,11.13h49.617c6.082,0,11.011-4.983,11.011-11.13
	c0-6.147-4.93-11.13-11.011-11.13H231.191z M305.619,384.587h-99.237c-6.082,0-11.011,4.983-11.011,11.13
	c0,6.147,4.93,11.13,11.011,11.13h99.237c6.082,0,11.011-4.983,11.011-11.13C316.631,389.57,311.701,384.587,305.619,384.587z"/>
<path style="fill:#939B48;" d="M256.001,134.958c33.446,0,60.562,19.934,60.562,44.522s-27.116,44.522-60.562,44.522
	c-33.449,0-60.565-19.933-60.565-44.522S222.553,134.958,256.001,134.958L256.001,134.958z"/>
<path style="fill:#612324;" d="M256.001,157.219c15.203,0,27.528,9.966,27.528,22.261c0,12.295-12.326,22.261-27.528,22.261
	c-15.204,0-27.53-9.966-27.53-22.261C228.471,167.185,240.797,157.219,256.001,157.219L256.001,157.219z"/>
<path style="fill:#868074;" d="M255.999,0H256c15.836,0,29.054,11.912,31.316,27.31c0.397,2.705,2.726,4.689,5.432,4.689h21.064
	c3.041,0,5.506,2.492,5.506,5.565v52.871c0,3.073-2.465,5.565-5.506,5.565H198.19c-3.041,0-5.506-2.492-5.506-5.565V37.564
	c0-3.073,2.465-5.565,5.506-5.565h21.062c2.706,0,5.033-1.985,5.432-4.689C226.945,11.912,240.162,0,255.999,0L255.999,0z"/>
<path style="fill:#323030;" d="M272.518,38.957c0,9.22-7.395,16.696-16.518,16.696c-9.122,0-16.518-7.475-16.518-16.696
	S246.877,22.261,256,22.261C265.122,22.261,272.518,29.736,272.518,38.957z"/>
<g>
</g>
<g>
</g>
<g>
</g>
<g>
</g>
<g>
</g>
<g>
</g>
<g>
</g>
<g>
</g>
<g>
</g>
<g>
</g>
<g>
</g>
<g>
</g>
<g>
</g>
<g>
</g>
<g>
</g>
</svg>
