<?xml version="1.0" encoding="utf-8"?>
<!-- Svg Vector Icons : http://www.onlinewebfonts.com/icon -->
<!DOCTYPE svg PUBLIC "-//W3C//DTD SVG 1.1//EN" "http://www.w3.org/Graphics/SVG/1.1/DTD/svg11.dtd">
<svg version="1.1" xmlns="http://www.w3.org/2000/svg" xmlns:xlink="http://www.w3.org/1999/xlink" x="0px" y="0px" viewBox="0 0 1000 1000" enable-background="new 0 0 1000 1000" xml:space="preserve">
<metadata> Svg Vector Icons : http://www.onlinewebfonts.com/icon </metadata>
<g><path d="M845.7,152.8L845.7,152.8L845.7,152.8c16.6,16.6,32.1,34.5,46.4,53.6c78.5,104.8,111.5,233.9,92.9,363.3c-10.1,70.1-34.5,135.5-72.4,194.6c-10.5,16.2-32.1,20.9-48.4,10.5c-16.2-10.4-20.9-32.2-10.5-48.5c32.5-50.5,53.4-106.6,62-166.6c32.9-229.3-126.8-442.5-356.1-475.4C448.6,68.5,338,96.6,248.3,164c-89.8,67.1-148,165.3-164,276.3C51.4,669.6,211.2,882.9,440.2,915.8c96.1,13.8,194.6-6.4,277.4-56.6c16.5-10,37.9-4.7,48,11.8c10.1,16.5,4.8,38-11.7,48c-96.6,58.7-211.5,82.2-323.6,66.1C163,946.5-23.4,697.9,15,430.4c18.6-129.5,86.5-244.1,191.3-322.5C311,29.5,440-3.6,569.5,15.1C675.5,30.3,771.3,78.5,845.7,152.8L845.7,152.8z"/><path d="M609.8,446.2c10.4,10.4,27.2,10.4,37.6,0c10.4-10.4,10.4-27.2,0-37.6c-10.4-10.4-27.2-10.4-37.6,0C599.4,419,599.4,435.8,609.8,446.2L609.8,446.2z M707.2,446.2c10.4,10.4,27.2,10.4,37.6,0c10.4-10.4,10.4-27.2,0-37.6c-10.4-10.4-27.2-10.4-37.6,0C696.8,419,696.8,435.8,707.2,446.2L707.2,446.2z M796.8,393.4v68.1c0,30.1-29.6,54.5-66.1,54.5h-24.8h-68.5l-106.2,70.8c-36.5,0,35.4-70.8,17.7-106.2v-87.2c0-30.1,29.6-54.5,66.1-54.5h115.7C767.2,338.9,796.8,363.3,796.8,393.4L796.8,393.4z M678.4,561.8c15.1,26.1,21.2,52.8,17.7,77c-3.6,24.5-16.9,44.6-37.4,56.4l-130.9,75.6c-11.8,6.8-24.4,10.1-37.1,10.1c-32.7,0-66.2-21.5-88.2-59.7L277.8,505.5c-15.1-26.2-21.2-52.8-17.7-77c3.6-24.5,16.9-44.6,37.4-56.4l130.9-75.6c42-24.3,94.8-3.4,125.4,49.6l-30.7,17.7c-20.7-35.8-52.3-50.9-77-36.6l-130.9,75.6c-11.1,6.4-18.1,17.1-20.1,30.9c-2.4,16.2,2.2,34.9,13.3,54.1L433,703.5c20.7,35.8,52.3,50.8,77,36.6l130.9-75.6c11.1-6.4,18.1-17.1,20.1-30.9c2.4-16.2-2.2-35-13.3-54.1L678.4,561.8L678.4,561.8z M617.8,592.9c4.9,8.5,5.4,17.3,1.2,19.8l-138,79.7c-4.2,2.4-11.6-2.4-16.5-10.9c-4.9-8.5-5.4-17.3-1.2-19.8l138-79.7C605.5,579.6,612.9,584.5,617.8,592.9L617.8,592.9z M505.5,520.2c4.9,8.5,6.8,16.5,4.2,18l-83.6,48.3c-2.6,1.5-8.6-4.2-13.5-12.7c-4.9-8.5-6.8-16.5-4.2-18l83.6-48.3C494.6,506.1,500.6,511.8,505.5,520.2L505.5,520.2z M493.8,398.2c4.9,8.5,5.4,17.3,1.2,19.8l-138,79.7c-4.2,2.4-11.6-2.4-16.5-10.9c-4.9-8.5-5.4-17.3-1.2-19.8l138-79.7C481.5,384.8,488.9,389.7,493.8,398.2L493.8,398.2z"/></g>
</svg>