<?xml version="1.0" encoding="iso-8859-1"?>
<!-- Generator: Adobe Illustrator 19.0.0, SVG Export Plug-In . SVG Version: 6.00 Build 0)  -->
<svg version="1.1" id="Layer_1" xmlns="http://www.w3.org/2000/svg" xmlns:xlink="http://www.w3.org/1999/xlink" x="0px" y="0px"
	 viewBox="0 0 491.519 491.519" style="enable-background:new 0 0 491.519 491.519;" xml:space="preserve">
<rect x="0" y="474.268" style="fill:#D5D6DB;" width="367.585" height="17.244"/>
<polygon style="fill:#EBF0F3;" points="280.922,0.002 0,0.002 0,474.276 367.585,474.276 367.585,86.97 "/>
<polygon style="fill:#E1E6E9;" points="280.922,86.97 367.585,86.97 280.922,0.002 "/>
<rect x="31.201" y="45.13" style="fill:#44C4A1;" width="184.525" height="17.874"/>
<g>
	<rect x="30.034" y="271.823" style="fill:#D5D6DB;" width="215.654" height="16.671"/>
	<rect x="30.034" y="320.361" style="fill:#D5D6DB;" width="307.507" height="16.671"/>
	<rect x="30.034" y="223.306" style="fill:#D5D6DB;" width="307.507" height="16.671"/>
	<rect x="30.034" y="174.799" style="fill:#D5D6DB;" width="307.507" height="16.676"/>
	<rect x="30.034" y="368.898" style="fill:#D5D6DB;" width="307.507" height="16.671"/>
	<rect x="30.034" y="417.436" style="fill:#D5D6DB;" width="139.991" height="16.671"/>
</g>
<rect x="96.906" y="116.815" style="fill:#D15241;" width="173.768" height="16.671"/>
<rect x="330.138" y="303.055" style="fill:#44C4A1;" width="53.801" height="188.462"/>
<rect x="383.918" y="303.055" style="fill:#3EA69B;" width="53.801" height="188.462"/>
<rect x="437.709" y="303.055" style="fill:#31978C;" width="53.801" height="188.462"/>
<path style="fill:#64798A;" d="M410.819,133.489l40.188,84.443c-11.58,7.532-25.36,11.951-40.188,11.951
	c-14.828,0-28.606-4.419-40.186-11.951L410.819,133.489z"/>
<path style="fill:#FCD462;" d="M330.117,303.061l40.515-85.129c7.304,4.751,15.483,8.255,24.246,10.2l-10.96,74.928H330.117z"/>
<path style="fill:#DC8744;" d="M491.519,303.061h-53.8l-10.961-74.928c8.764-1.946,16.946-5.451,24.248-10.2L491.519,303.061z"/>
<path style="fill:#F6C358;" d="M383.918,303.061l10.96-74.928c5.133,1.14,10.464,1.752,15.94,1.752
	c5.476,0,10.806-0.611,15.94-1.752l10.961,74.928H383.918z"/>
<g>
</g>
<g>
</g>
<g>
</g>
<g>
</g>
<g>
</g>
<g>
</g>
<g>
</g>
<g>
</g>
<g>
</g>
<g>
</g>
<g>
</g>
<g>
</g>
<g>
</g>
<g>
</g>
<g>
</g>
</svg>
