<svg xmlns:dc="http://purl.org/dc/elements/1.1/" xmlns:cc="http://creativecommons.org/ns#" xmlns:rdf="http://www.w3.org/1999/02/22-rdf-syntax-ns#" xmlns:svg="http://www.w3.org/2000/svg" xmlns="http://www.w3.org/2000/svg" xmlns:sodipodi="http://sodipodi.sourceforge.net/DTD/sodipodi-0.dtd" xmlns:inkscape="http://www.inkscape.org/namespaces/inkscape" version="1.1" x="0px" y="0px" viewBox="0 0 100 125"><g transform="translate(0,-952.36218)"><path style="text-indent:0;text-transform:none;direction:ltr;block-progression:tb;baseline-shift:baseline;color:#000000;enable-background:accumulate;" d="m 48.994872,979.36219 c -4.92531,0 -8.93611,4.4951 -8.93611,10.0297 0,5.5348 4.0108,10.061 8.93611,10.061 4.92532,0 8.93611,-4.5262 8.93611,-10.061 0,-5.5346 -4.01079,-10.0297 -8.93611,-10.0297 z m 11.99813,0 c -1.62499,0 -3.15198,0.4858 -4.46805,1.3436 0.46207,0.5056 0.87273,1.066 1.2498,1.6559 0.964,-0.558 2.056,-0.8749 3.21825,-0.8749 3.90674,0 7.0614,3.5151 7.0614,7.9051 0,4.3903 -3.15466,7.9363 -7.0614,7.9363 -1.15736,0 -2.25721,-0.2935 -3.21825,-0.8437 -0.37707,0.5885 -0.78773,1.1208 -1.2498,1.6248 1.31607,0.8537 2.84306,1.3436 4.46805,1.3436 4.92533,0 8.93611,-4.5261 8.93611,-10.061 0,-5.5346 -4.01078,-10.0297 -8.93611,-10.0297 z m -11.99813,2.1246 c 3.90672,0 7.0614,3.5151 7.0614,7.9051 0,4.3902 -3.15468,7.9363 -7.0614,7.9363 -3.90672,0 -7.0614,-3.5461 -7.0614,-7.9363 0,-4.39 3.15468,-7.9051 7.0614,-7.9051 z m -23.99626,7.8426 0,8.9987 -8.9986,0 0,1.99971 8.9986,0 0,8.9986 1.99969,0 0,-8.9986 8.9986,0 0,-1.99971 -8.9986,0 0,-8.9987 -1.99969,0 z m 23.99626,14.06041 c -5.11062,0 -10.68979,1.0005 -15.0914,2.937 -3.86405,1.7364 -7.74357,4.8415 -7.81128,8.9674 3e-5,1.4428 -0.14488,2.7395 -0.0937,3.9681 0.20904,3.4123 2.81968,4.8883 5.53039,5.4367 2.01651,0.3942 4.72246,0.5921 8.46743,0.5937 6.26127,0.1993 12.63409,-0.09 17.9972,-0.125 2.84431,-0.098 5.85799,-0.023 8.49868,-0.4999 3.15471,-0.632 5.34864,-2.2881 5.49914,-5.4055 0.0501,-1.2264 -0.0938,-2.5253 -0.0937,-3.9681 -0.46156,-4.6758 -4.12837,-7.3244 -7.81129,-8.9674 -4.40162,-1.9365 -9.98086,-2.937 -15.0914,-2.937 z m 12.99798,0.031 c 2.04943,0.6605 3.99973,1.5272 5.71786,2.562 2.70936,0.469 5.33667,1.2085 7.561323,2.1872 3.038,1.4569 6.56977,3.7174 6.62397,7.1239 -4e-5,1.5532 0.13529,2.858 0.0937,3.8745 -0.10836,2.4642 -2.13254,3.1919 -3.87439,3.5306 -1.28135,0.2406 -3.008943,0.4128 -5.217943,0.4687 -0.49415,0.8592 -1.30462,1.47 -2.03093,1.9997 3.28391,0 5.776143,-0.1534 7.623813,-0.4999 3.1547,-0.632 5.34865,-2.288 5.49914,-5.4055 0.0501,-1.2264 -0.0938,-2.5253 -0.0937,-3.9681 -0.46154,-4.6758 -4.12836,-7.3244 -7.81129,-8.9674 -4.117583,-1.8114 -9.261263,-2.7857 -14.091553,-2.9057 z m -12.99798,1.9684 c 4.84398,0 10.21924,0.9948 14.27903,2.7808 3.03795,1.4569 6.56976,3.7174 6.62397,7.1239 -4e-5,1.5532 0.13529,2.8582 0.0937,3.8745 -0.10835,2.4641 -2.13258,3.1919 -3.87439,3.5306 -1.79373,0.3367 -4.40718,0.4976 -8.09249,0.4687 -6.0355,0.029 -12.01639,0.3269 -17.96596,0.125 -2.72258,-0.1101 -5.58169,-0.076 -8.15498,-0.5625 -2.3106,-0.4098 -3.80715,-1.4751 -3.90564,-3.5618 -0.0423,-1.0178 0.0938,-2.3213 0.0937,-3.8745 0.42402,-3.7707 3.6966,-5.8176 6.62397,-7.1239 4.78722,-1.6554 9.87329,-2.7467 14.27902,-2.7808 z" fill="#000000" fill-opacity="1" stroke="none" marker="none" visibility="visible" display="inline" overflow="visible"/></g><text x="0" y="115" fill="#000000" font-size="5px" font-weight="bold" font-family="'Helvetica Neue', Helvetica, Arial-Unicode, Arial, Sans-serif">Created by arif fajar yulianto</text><text x="0" y="120" fill="#000000" font-size="5px" font-weight="bold" font-family="'Helvetica Neue', Helvetica, Arial-Unicode, Arial, Sans-serif">from the Noun Project</text></svg>