<?xml version="1.0" encoding="iso-8859-1"?>
<!-- Generator: Adobe Illustrator 19.0.0, SVG Export Plug-In . SVG Version: 6.00 Build 0)  -->
<svg version="1.1" id="Layer_1" xmlns="http://www.w3.org/2000/svg" xmlns:xlink="http://www.w3.org/1999/xlink" x="0px" y="0px"
	 viewBox="0 0 512 512" style="enable-background:new 0 0 512 512;" xml:space="preserve">
<path style="fill:#E6EEFF;" d="M358.512,270.956l-31.503-14.672l-138.875-0.447l-33.72,15.207
	c-28.189,12.715-45.687,38.496-45.687,67.295V437c0,8.291,7.319,15,16.364,15h261.818c9.045,0,16.364-6.709,16.364-15v-99.188
	C403.273,309.423,386.126,283.803,358.512,270.956z"/>
<path style="fill:#DAE2F2;" d="M358.512,270.956l-31.503-14.672L256,256.055V452h130.909c9.045,0,16.364-6.709,16.364-15v-99.188
	C403.273,309.423,386.126,283.803,358.512,270.956z"/>
<path style="fill:#FFDE33;" d="M337.067,432.518C329.013,408.934,299.354,331,256,331s-73.013,77.934-81.067,101.518
	c-2.701,7.91,2.093,16.318,10.723,18.794h140.689C334.974,448.836,339.768,440.428,337.067,432.518z"/>
<path style="fill:#FFBC33;" d="M326.344,451.312c8.629-2.476,13.423-10.884,10.723-18.794C329.013,408.934,299.354,331,256,331
	v120.312H326.344z"/>
<path style="fill:#E6EEFF;" d="M386.909,60H125.091c-9.045,0-16.364,6.709-16.364,15v76l33.918,30h226.918l33.71-30V75
	C403.273,66.709,395.954,60,386.909,60z"/>
<path style="fill:#DAE2F2;" d="M386.909,60H256v121h113.563l33.71-30V75C403.273,66.709,395.954,60,386.909,60z"/>
<path style="fill:#5C5F66;" d="M386.909,90H125.091C98.021,90,76,69.814,76,45V15c0-8.291,7.319-15,16.364-15h327.273
	C428.681,0,436,6.709,436,15v30C436,69.814,413.979,90,386.909,90z"/>
<path style="fill:#53565C;" d="M419.636,0H256v90h130.909C413.979,90,436,69.814,436,45V15C436,6.709,428.681,0,419.636,0z"/>
<path style="fill:#5C5F66;" d="M419.636,512H92.364C83.319,512,76,505.291,76,497v-30c0-24.814,22.021-45,49.091-45h261.818
	c27.07,0,49.091,20.186,49.091,45v30C436,505.291,428.681,512,419.636,512z"/>
<path style="fill:#53565C;" d="M386.909,422H256v90h163.636c9.045,0,16.364-6.709,16.364-15v-30
	C436,442.186,413.979,422,386.909,422z"/>
<path style="fill:#FFDE33;" d="M108.727,151v22.412c0,25.297,16.645,54.385,46.119,67.471l32.779,14.586l0.509,0.368
	c33.708,24.412,21.799,15.788,56.296,40.768c6.392,5.859,16.747,5.859,23.139,0c35.564-24.124,23.018-15.613,59.44-40.322
	c0.531-0.358,31.38-14.919,31.966-15.196c28.431-13.427,44.297-41.19,44.297-66.636V151C300.425,151,225.152,151,108.727,151z"/>
<path style="fill:#FFBC33;" d="M256,301c4.187,0,8.374-1.465,11.57-4.395c35.564-24.124,23.017-15.613,59.44-40.322
	c0.531-0.359,31.381-14.919,31.966-15.196c28.431-13.427,44.297-41.191,44.297-66.636V151c-53.288,0-99.231,0-147.273,0V301z"/>
<g>
</g>
<g>
</g>
<g>
</g>
<g>
</g>
<g>
</g>
<g>
</g>
<g>
</g>
<g>
</g>
<g>
</g>
<g>
</g>
<g>
</g>
<g>
</g>
<g>
</g>
<g>
</g>
<g>
</g>
</svg>
