<?xml version="1.0" encoding="iso-8859-1"?>
<!-- Generator: Adobe Illustrator 19.0.0, SVG Export Plug-In . SVG Version: 6.00 Build 0)  -->
<svg version="1.1" id="Layer_1" xmlns="http://www.w3.org/2000/svg" xmlns:xlink="http://www.w3.org/1999/xlink" x="0px" y="0px"
	 viewBox="0 0 512 512" style="enable-background:new 0 0 512 512;" xml:space="preserve">
<circle style="fill:#9EA7DB;" cx="256" cy="256" r="256"/>
<path style="fill:#8C95C9;" d="M503.813,320.459c-23.45,90.41-95.068,161.399-185.828,183.971L170.153,356.592
	c-61.49-28.591-39.235-120.913,27.974-136.571h205.248L503.813,320.459z"/>
<path style="fill:#F8F8F8;" d="M331.97,282.602l68.149-55.71c2.129-1.74,3.252-4.119,3.252-6.87s-1.123-5.125-3.252-6.864
	l-68.149-55.715c-2.718-2.218-6.247-2.646-9.421-1.145c-3.168,1.506-5.075,4.53-5.075,8.02v26.846H195.182
	c-47.606,0-86.552,34.983-86.552,82.589l0,0c0,38.907,26.018,72.034,61.524,82.84c-17.703-9.143-29.881-27.63-29.881-48.834l0,0
	c0-30.198,24.712-58.873,54.91-58.873h122.292v26.846c0,3.491,1.906,6.514,5.075,8.021
	C325.722,285.253,329.246,284.825,331.97,282.602z"/>
<path style="fill:#D9D9DD;" d="M331.97,282.602l68.149-55.71c2.129-1.74,3.257-4.113,3.257-6.87H190.602
	c-73.535,2.012-93.011,108.518-20.454,136.571c-17.697-9.143-29.87-27.635-29.87-48.834l0,0c0-30.198,24.701-58.873,54.904-58.873
	h122.297v26.846c0,3.491,1.901,6.514,5.069,8.021C325.722,285.253,329.246,284.825,331.97,282.602z"/>
<g>
</g>
<g>
</g>
<g>
</g>
<g>
</g>
<g>
</g>
<g>
</g>
<g>
</g>
<g>
</g>
<g>
</g>
<g>
</g>
<g>
</g>
<g>
</g>
<g>
</g>
<g>
</g>
<g>
</g>
</svg>
