<?xml version="1.0" encoding="iso-8859-1"?>
<!-- Generator: Adobe Illustrator 19.0.0, SVG Export Plug-In . SVG Version: 6.00 Build 0)  -->
<svg version="1.1" id="Layer_1" xmlns="http://www.w3.org/2000/svg" xmlns:xlink="http://www.w3.org/1999/xlink" x="0px" y="0px"
	 viewBox="0 0 512 512" style="enable-background:new 0 0 512 512;" xml:space="preserve">
<circle style="fill:#FF8C8A;" cx="256" cy="256" r="256"/>
<path style="fill:#FA7876;" d="M498.711,337.603C478.222,398.559,435.409,449.256,379.997,480L184.571,284.574l-1.308-64.554
	l9.909-60.465l73.191,60.465l123.771,9.007L498.711,337.603z"/>
<path style="fill:#F8F8F8;" d="M180.033,282.603l-68.152-55.711c-2.13-1.742-3.253-4.117-3.253-6.871
	c0-2.753,1.126-5.126,3.253-6.867l68.152-55.711c2.717-2.222,6.248-2.65,9.417-1.147c3.17,1.504,5.074,4.531,5.074,8.018v26.85
	h122.291c47.606,0,86.555,34.983,86.555,82.588l0,0c0,38.91-26.021,72.036-61.523,82.838c17.702-9.14,29.877-27.631,29.877-48.832
	l0,0c0-30.202-24.707-58.876-54.91-58.876H194.525v26.85c0,3.487-1.904,6.514-5.074,8.018
	C186.281,285.253,182.754,284.825,180.033,282.603z"/>
<path style="fill:#D9D9DD;" d="M180.033,282.602l-68.151-55.71c-2.129-1.743-3.256-4.117-3.256-6.872h212.776
	c73.533,2.011,93.008,108.52,20.45,136.571c17.699-9.142,29.873-27.634,29.873-48.834l0,0c0-30.201-24.704-58.873-54.908-58.873
	H194.523v26.847c0,3.489-1.902,6.514-5.072,8.018C186.28,285.253,182.754,284.826,180.033,282.602z"/>
<g>
</g>
<g>
</g>
<g>
</g>
<g>
</g>
<g>
</g>
<g>
</g>
<g>
</g>
<g>
</g>
<g>
</g>
<g>
</g>
<g>
</g>
<g>
</g>
<g>
</g>
<g>
</g>
<g>
</g>
</svg>
