<?xml version="1.0" encoding="iso-8859-1"?>
<!-- Generator: Adobe Illustrator 19.0.0, SVG Export Plug-In . SVG Version: 6.00 Build 0)  -->
<svg version="1.1" id="Capa_1" xmlns="http://www.w3.org/2000/svg" xmlns:xlink="http://www.w3.org/1999/xlink" x="0px" y="0px"
	 viewBox="0 0 512 512" style="enable-background:new 0 0 512 512;" xml:space="preserve">
<path style="fill:#994C0F;" d="M407,73.506c24.901,0,45,20.099,45,45v30c0,8.401-6.599,15-15,15H45c-24.901,0-45-20.099-45-45v-15
	c0-16.5,13.5-30,30-30H407z"/>
<path style="fill:#713708;" d="M407,73.506c24.901,0,45,20.099,45,45v30c0,8.401-6.599,15-15,15H271v-90H407z"/>
<path style="fill:#0CA656;" d="M148.1,159.111c-2.813,2.813-6.621,4.395-10.605,4.395h-91c-13.361,0-20.014-16.197-10.605-25.605
	L170.395,4.395c5.859-5.859,15.352-5.859,21.211,0l45,45c5.859,5.859,5.859,15.352,0,21.211L148.1,159.111z"/>
<path style="fill:#32D736;" d="M415,138.007l-71.1-71.1l-30.3-11.102c-0.3,0-0.599,0.3-0.899,0.601c-11.1,11.1-26.4,16.5-41.7,16.5
	c-12.599,0-24.901-3.9-35.4-11.4l-37.8,5.7L127,138.007c-9.6,9-2.701,25.499,10.499,25.499H404.5c6,0,11.4-3.6,13.799-9.3
	C420.7,148.506,419.5,142.205,415,138.007z"/>
<path style="fill:#BF6015;" d="M482,178.506V422l-28.2,30H32.701L0,422V103.506c0,16.5,13.801,30,30,30h407
	C461.6,133.506,482,153.605,482,178.506z"/>
<g>
	<path style="fill:#10BB67;" d="M281.499,4.506C278.8,1.505,274.9,0.005,271,0.005s-7.8,1.5-10.499,4.501L197.5,67.205
		c21.601,21.301,39.3,36.301,73.5,36.301s51.899-15,73.5-36.301L281.499,4.506z"/>
	<path style="fill:#10BB67;" d="M404.5,163.506H271V72.905c15.3,0,30.601-5.4,41.7-16.5c0.3-0.3,0.599-0.601,0.899-0.601
		l30.3,11.102l71.1,71.1c4.501,4.199,5.7,10.499,3.3,16.199C415.901,159.906,410.501,163.506,404.5,163.506z"/>
</g>
<g>
	<path style="fill:#994C0F;" d="M482,178.506V422l-28.2,30H271V133.506h166C461.6,133.506,482,153.605,482,178.506z"/>
	<path style="fill:#994C0F;" d="M0,422v45c0,24.901,20.099,45,45,45h392c24.901,0,45-20.099,45-45v-45H0z"/>
</g>
<path style="fill:#713708;" d="M482,422v45c0,24.901-20.099,45-45,45H271v-90H482z"/>
<path style="fill:#FFCC33;" d="M467,391h-91c-41.353,0-75-33.647-75-75s33.647-75,75-75h91c24.814,0,45,20.186,45,45v60
	C512,370.814,491.814,391,467,391z"/>
<circle style="fill:#994C0F;" cx="376" cy="316" r="15"/>
<path style="fill:#0CA656;" d="M344.5,67.205c-21.601,21.301-39.3,36.301-73.5,36.301V0.005c3.9,0,7.8,1.5,10.499,4.501
	L344.5,67.205z"/>
<g>
</g>
<g>
</g>
<g>
</g>
<g>
</g>
<g>
</g>
<g>
</g>
<g>
</g>
<g>
</g>
<g>
</g>
<g>
</g>
<g>
</g>
<g>
</g>
<g>
</g>
<g>
</g>
<g>
</g>
</svg>
