<?xml version="1.0" encoding="iso-8859-1"?>
<!-- Generator: Adobe Illustrator 19.0.0, SVG Export Plug-In . SVG Version: 6.00 Build 0)  -->
<svg version="1.1" id="Capa_1" xmlns="http://www.w3.org/2000/svg" xmlns:xlink="http://www.w3.org/1999/xlink" x="0px" y="0px"
	 viewBox="0 0 473.999 473.999" style="enable-background:new 0 0 473.999 473.999;" xml:space="preserve">
<path d="M406.224,242.114c0.044-0.07,0.084-0.141,0.126-0.212c0.318-0.544,0.577-1.119,0.76-1.722
	c0.031-0.103,0.052-0.207,0.079-0.311c0.039-0.148,0.08-0.296,0.11-0.447c0.026-0.129,0.041-0.259,0.06-0.389
	c0.019-0.128,0.042-0.256,0.055-0.385c0.013-0.132,0.016-0.264,0.022-0.396c0.006-0.129,0.016-0.257,0.016-0.386
	s-0.01-0.258-0.016-0.386c-0.006-0.132-0.009-0.264-0.022-0.396c-0.013-0.129-0.036-0.257-0.055-0.385
	c-0.019-0.13-0.034-0.259-0.06-0.389c-0.03-0.151-0.071-0.298-0.11-0.447c-0.027-0.104-0.048-0.208-0.079-0.311
	c-0.154-0.507-0.357-0.997-0.606-1.464c-0.052-0.096-0.111-0.186-0.166-0.279c-0.077-0.132-0.152-0.264-0.237-0.391
	c-0.073-0.109-0.153-0.21-0.23-0.314c-0.078-0.105-0.153-0.212-0.236-0.314c-0.083-0.101-0.173-0.195-0.26-0.291
	c-0.088-0.097-0.173-0.197-0.267-0.29c-0.089-0.089-0.184-0.17-0.276-0.254c-0.101-0.092-0.199-0.186-0.305-0.272
	c-0.097-0.079-0.199-0.15-0.299-0.224c-0.109-0.081-0.216-0.165-0.33-0.241c-0.121-0.081-0.248-0.152-0.373-0.226
	c-0.099-0.059-0.194-0.122-0.297-0.176c-0.234-0.125-0.474-0.24-0.72-0.341l-73.905-30.612l30.699-74.114
	c0.101-0.244,0.19-0.493,0.267-0.746c0.015-0.05,0.024-0.1,0.038-0.15c0.057-0.201,0.111-0.403,0.152-0.609
	c0.01-0.052,0.015-0.104,0.024-0.156c0.037-0.205,0.071-0.411,0.092-0.62c0.004-0.038,0.003-0.075,0.006-0.113
	c0.019-0.222,0.032-0.445,0.033-0.669c0-0.027-0.003-0.055-0.003-0.082c-0.002-0.232-0.011-0.465-0.034-0.698
	c-0.003-0.034-0.01-0.067-0.014-0.101c-0.025-0.224-0.055-0.447-0.099-0.671c-0.015-0.076-0.038-0.15-0.056-0.226
	c-0.041-0.179-0.08-0.358-0.134-0.536c-0.077-0.255-0.166-0.506-0.269-0.754L311.808,4.946c-0.102-0.247-0.217-0.488-0.343-0.724
	c-0.054-0.101-0.116-0.195-0.174-0.292c-0.075-0.126-0.146-0.255-0.228-0.377c-0.076-0.114-0.16-0.221-0.242-0.33
	c-0.074-0.099-0.145-0.201-0.223-0.297c-0.087-0.106-0.181-0.204-0.273-0.305c-0.084-0.093-0.165-0.187-0.254-0.276
	c-0.093-0.093-0.191-0.177-0.288-0.265c-0.097-0.088-0.191-0.178-0.293-0.262c-0.1-0.082-0.205-0.155-0.309-0.232
	c-0.106-0.079-0.209-0.161-0.32-0.235c-0.123-0.082-0.25-0.153-0.377-0.228c-0.098-0.058-0.192-0.12-0.293-0.174
	c-0.465-0.249-0.954-0.451-1.458-0.604c-0.121-0.037-0.243-0.062-0.365-0.093c-0.131-0.033-0.26-0.07-0.393-0.097
	c-0.14-0.028-0.281-0.045-0.421-0.065c-0.118-0.017-0.234-0.038-0.353-0.05c-0.139-0.014-0.277-0.017-0.415-0.023
	C304.662,0.01,304.539,0,304.416,0c-0.131,0-0.26,0.01-0.39,0.016c-0.131,0.006-0.262,0.009-0.394,0.022
	c-0.127,0.013-0.252,0.035-0.378,0.054c-0.132,0.019-0.265,0.035-0.397,0.061c-0.142,0.028-0.281,0.068-0.42,0.103
	c-0.113,0.029-0.227,0.052-0.339,0.086c-0.252,0.077-0.501,0.164-0.745,0.265l-0.001,0c-0.008,0.003-0.016,0.008-0.024,0.011
	c-0.235,0.098-0.465,0.207-0.689,0.327c-0.107,0.057-0.206,0.122-0.309,0.183c-0.121,0.072-0.244,0.14-0.361,0.219
	c-0.115,0.077-0.223,0.162-0.334,0.244c-0.099,0.073-0.199,0.143-0.295,0.222c-0.106,0.087-0.204,0.181-0.305,0.272
	c-0.093,0.084-0.188,0.166-0.277,0.255c-0.092,0.092-0.177,0.19-0.264,0.287c-0.089,0.097-0.179,0.192-0.263,0.294
	c-0.083,0.101-0.156,0.207-0.234,0.311c-0.078,0.105-0.159,0.207-0.232,0.317c-0.085,0.127-0.159,0.259-0.236,0.391
	c-0.055,0.094-0.115,0.183-0.166,0.28c-0.126,0.236-0.241,0.477-0.343,0.724l-30.612,73.903l-74.119-30.701
	c-0.242-0.1-0.489-0.188-0.74-0.265c-0.054-0.016-0.108-0.026-0.162-0.041c-0.198-0.056-0.396-0.109-0.598-0.149
	c-0.049-0.01-0.099-0.014-0.148-0.023c-0.208-0.038-0.417-0.072-0.628-0.093c-0.033-0.003-0.067-0.003-0.101-0.006
	c-0.226-0.02-0.454-0.033-0.682-0.033c-0.018,0-0.035,0.002-0.053,0.002c-0.242,0.001-0.484,0.012-0.727,0.036
	c-0.017,0.002-0.034,0.005-0.051,0.007c-0.241,0.025-0.481,0.059-0.722,0.106c-0.045,0.009-0.089,0.023-0.134,0.033
	c-0.21,0.045-0.419,0.094-0.628,0.157c-0.254,0.077-0.504,0.166-0.751,0.268l-114.675,47.5c-0.245,0.101-0.484,0.215-0.718,0.34
	c-0.103,0.055-0.198,0.118-0.298,0.177c-0.125,0.074-0.252,0.145-0.373,0.226c-0.113,0.075-0.218,0.158-0.326,0.239
	c-0.101,0.075-0.204,0.147-0.302,0.227c-0.104,0.085-0.2,0.177-0.299,0.267c-0.095,0.086-0.192,0.169-0.283,0.26
	c-0.09,0.09-0.172,0.186-0.258,0.28c-0.09,0.099-0.183,0.196-0.269,0.301c-0.08,0.098-0.152,0.202-0.228,0.303
	c-0.08,0.108-0.163,0.212-0.238,0.325c-0.082,0.123-0.155,0.252-0.23,0.38c-0.057,0.097-0.119,0.19-0.172,0.29
	c-0.25,0.467-0.453,0.957-0.606,1.463c-0.031,0.103-0.052,0.207-0.079,0.311c-0.039,0.148-0.08,0.296-0.11,0.447
	c-0.026,0.129-0.041,0.259-0.06,0.389c-0.019,0.128-0.042,0.256-0.055,0.385c-0.013,0.133-0.016,0.264-0.022,0.397
	c-0.006,0.129-0.016,0.257-0.016,0.386c0,0.129,0.01,0.257,0.016,0.386c0.006,0.132,0.009,0.264,0.022,0.397
	c0.013,0.129,0.036,0.257,0.055,0.385c0.019,0.13,0.034,0.259,0.06,0.389c0.03,0.151,0.071,0.298,0.11,0.447
	c0.027,0.104,0.048,0.208,0.079,0.311c0.182,0.602,0.442,1.178,0.759,1.722c0.042,0.071,0.083,0.143,0.126,0.212
	c0.183,0.292,0.382,0.575,0.603,0.843c0.04,0.049,0.084,0.093,0.125,0.141c0.194,0.224,0.401,0.437,0.621,0.64
	c0.06,0.055,0.118,0.112,0.179,0.165c0.257,0.223,0.528,0.433,0.816,0.625c0.048,0.032,0.099,0.059,0.148,0.09
	c0.242,0.153,0.495,0.293,0.757,0.422c0.088,0.043,0.176,0.086,0.265,0.126c0.066,0.029,0.127,0.064,0.195,0.092l73.91,30.615
	l-30.699,74.115c-0.101,0.244-0.19,0.493-0.267,0.746c-0.015,0.05-0.024,0.101-0.038,0.151c-0.057,0.201-0.111,0.403-0.152,0.608
	c-0.01,0.052-0.015,0.105-0.024,0.157c-0.037,0.205-0.071,0.411-0.091,0.619c-0.004,0.038-0.003,0.077-0.006,0.115
	c-0.019,0.221-0.032,0.443-0.033,0.667c0,0.03,0.004,0.06,0.004,0.09c0.002,0.23,0.011,0.46,0.034,0.691
	c0.003,0.034,0.01,0.067,0.014,0.101c0.025,0.224,0.055,0.448,0.099,0.671c0.015,0.075,0.038,0.148,0.055,0.223
	c0.041,0.18,0.08,0.36,0.135,0.539c0.077,0.255,0.166,0.506,0.269,0.754l47.499,114.671c0.14,0.339,0.311,0.665,0.496,0.982
	c0.042,0.071,0.083,0.143,0.126,0.212c0.183,0.292,0.382,0.575,0.603,0.843c0.04,0.049,0.084,0.093,0.125,0.141
	c0.194,0.224,0.401,0.437,0.621,0.64c0.06,0.055,0.118,0.112,0.179,0.165c0.257,0.223,0.528,0.433,0.816,0.625
	c0.048,0.032,0.099,0.059,0.148,0.09c0.242,0.153,0.495,0.293,0.757,0.422c0.088,0.043,0.176,0.086,0.265,0.126
	c0.066,0.029,0.127,0.064,0.195,0.092c0.252,0.104,0.507,0.195,0.763,0.272c0.003,0.001,0.006,0.001,0.009,0.002
	c0.334,0.1,0.671,0.17,1.009,0.225c0.08,0.013,0.16,0.025,0.24,0.035c0.347,0.046,0.693,0.077,1.038,0.077c0.001,0,0.002,0,0.003,0
	s0.002,0,0.003,0c0.345,0,0.692-0.031,1.039-0.077c0.08-0.011,0.159-0.022,0.239-0.035c0.339-0.055,0.677-0.125,1.013-0.226
	c0.001,0,0.002-0.001,0.004-0.001c0.256-0.077,0.511-0.168,0.764-0.272c0.068-0.028,0.13-0.063,0.196-0.093
	c0.088-0.039,0.174-0.081,0.261-0.124c0.265-0.13,0.52-0.271,0.765-0.426c0.047-0.03,0.096-0.055,0.142-0.086
	c0.29-0.192,0.561-0.403,0.819-0.627c0.06-0.052,0.117-0.107,0.176-0.161c0.221-0.204,0.43-0.418,0.625-0.644
	c0.041-0.047,0.084-0.09,0.123-0.138c0.221-0.268,0.42-0.551,0.603-0.844c0.044-0.07,0.084-0.141,0.126-0.212
	c0.185-0.318,0.356-0.643,0.496-0.982l30.611-73.903l21.523,8.915v195.027c0,4.418,3.582,8,8,8s8-3.582,8-8v-188.4l36.599,15.16
	c0.248,0.103,0.5,0.192,0.754,0.269c0.02,0.006,0.04,0.009,0.06,0.015c0.31,0.091,0.624,0.157,0.94,0.21
	c0.096,0.016,0.192,0.03,0.289,0.043c0.315,0.04,0.631,0.067,0.948,0.07c0.025,0,0.049,0.005,0.073,0.005
	c1.021,0,2.058-0.196,3.059-0.611l114.679-47.502c0.068-0.028,0.13-0.063,0.196-0.093c0.088-0.039,0.174-0.081,0.261-0.124
	c0.265-0.13,0.52-0.271,0.765-0.426c0.047-0.03,0.096-0.055,0.142-0.086c0.29-0.192,0.561-0.403,0.819-0.627
	c0.06-0.052,0.117-0.107,0.176-0.161c0.221-0.204,0.43-0.418,0.625-0.644c0.041-0.047,0.084-0.09,0.123-0.138
	C405.842,242.69,406.041,242.407,406.224,242.114z M276.172,178.143c1.558-7.714,0.8-15.714-2.279-23.147
	c-3.018-7.286-8.001-13.376-14.372-17.714l44.892-108.379l37.05,89.446l-46.178,19.128c-4.082,1.69-6.021,6.37-4.329,10.452
	c1.275,3.081,4.254,4.94,7.394,4.94c1.021,0,2.058-0.196,3.059-0.611l35.726-14.798l-23.311,56.279L276.172,178.143z
	 M227.753,192.476c-5.923-2.452-10.536-7.065-12.989-12.988s-2.453-12.445,0.001-18.368c3.729-9.006,12.438-14.824,22.185-14.824
	c3.146,0,6.231,0.617,9.172,1.836c5.923,2.452,10.536,7.065,12.989,12.988s2.453,12.445-0.001,18.368
	c-3.729,9.006-12.438,14.824-22.185,14.824C233.78,194.312,230.694,193.694,227.753,192.476z M244.777,131.071
	c-2.569-0.516-5.184-0.776-7.827-0.776c-13.516,0-25.827,6.719-33.162,17.619L95.451,103.038l89.445-37.049l19.127,46.177
	c1.275,3.081,4.254,4.94,7.394,4.94c1.021,0,2.058-0.196,3.059-0.611c4.082-1.69,6.021-6.37,4.329-10.452l-14.798-35.725
	l56.279,23.311L244.777,131.071z M197.659,162.693c-1.498,7.643-0.725,15.558,2.323,22.918s8.1,13.503,14.563,17.849l-44.96,108.543
	l-37.05-89.446l46.178-19.128c4.082-1.69,6.021-6.37,4.329-10.452c-1.689-4.082-6.37-6.02-10.452-4.329l-35.726,14.798
	l23.311-56.279L197.659,162.693z M229.328,209.577c2.495,0.486,5.032,0.734,7.597,0.734c13.436,0,25.681-6.639,33.031-17.426
	l108.593,44.98l-89.445,37.05l-19.127-46.178c-1.689-4.082-6.371-6.021-10.452-4.329c-4.082,1.69-6.021,6.37-4.329,10.452
	l14.798,35.726l-56.279-23.311L229.328,209.577z"/>
<g>
</g>
<g>
</g>
<g>
</g>
<g>
</g>
<g>
</g>
<g>
</g>
<g>
</g>
<g>
</g>
<g>
</g>
<g>
</g>
<g>
</g>
<g>
</g>
<g>
</g>
<g>
</g>
<g>
</g>
</svg>
